PathFileType	4	(X/Y/Z)	C:/Users/opensim2020/Desktop/walking_exp_matlab/subject02_walking09_straight_01.trc																																																																																																																												
DataRate	CameraRate	NumFrames	NumMarkers	Units	OrigDataRate	OrigDataStartFrame	OrigNumFrames																																																																																																																								
100	100	8	42	mm	100	599	293																																																																																																																								
Frame#	Time	LFHD			RFHD			LBHD			RBHD			C7			T10			CLAV			STRN			RBAK			LSHO			LUPA			LELB			LFRM			LWRA			LWRB			LFIN			RSHO			RUPA			RELB			RFRM			RWRA			RWRB			RFIN			LASI			RASI			LPSI			RPSI			LTHI			LKNE			LTIB			LANK			LHEE			LTOE			RTHI			RKNE			RTIB			RANK			RHEE			RTOE			*39			*40			*41		
		X1	Y1	Z1	X2	Y2	Z2	X3	Y3	Z3	X4	Y4	Z4	X5	Y5	Z5	X6	Y6	Z6	X7	Y7	Z7	X8	Y8	Z8	X9	Y9	Z9	X10	Y10	Z10	X11	Y11	Z11	X12	Y12	Z12	X13	Y13	Z13	X14	Y14	Z14	X15	Y15	Z15	X16	Y16	Z16	X17	Y17	Z17	X18	Y18	Z18	X19	Y19	Z19	X20	Y20	Z20	X21	Y21	Z21	X22	Y22	Z22	X23	Y23	Z23	X24	Y24	Z24	X25	Y25	Z25	X26	Y26	Z26	X27	Y27	Z27	X28	Y28	Z28	X29	Y29	Z29	X30	Y30	Z30	X31	Y31	Z31	X32	Y32	Z32	X33	Y33	Z33	X34	Y34	Z34	X35	Y35	Z35	X36	Y36	Z36	X37	Y37	Z37	X38	Y38	Z38	X39	Y39	Z39	X40	Y40	Z40	X41	Y41	Z41	X42	Y42	Z42
																																																																																																																															
74	0.73	-780.71466	1735.71716	-1070.8811	-792.62604	1713.104	-925.89697	-884.35175	1631.56628	-1093.64551	-911.29736	1604.75659	-955.22839	-928.7085	1498.91931	-1018.09711	-978.27448	1226.02502	-1007.04852	-785.79321	1433.31812	-1031.55164	-732.07257	1261.82751	-1015.68817	-982.59985	1329.03589	-947.70874	-866.27716	1469.69788	-1198.29358	-924.74744	1278.88208	-1275.44153	-960.94287	1145.23425	-1287.64966	-991.01556	1019.1297	-1312.09607	-966.625	879.63422	-1306.51221	-1016.755	898.35181	-1326.09937	-1018.05872	830.57373	-1334.45593	-843.31323	1472.19788	-833.99719	-838.93207	1285.09692	-739.65259	-789.89355	1146.00244	-713.95605	-720.15125	1045.91382	-700.52179	-631.49872	945.80334	-727.28333	-670.95648	925.19501	-690.86823	-611.88	882.65961	-692.52972	-733.04797	974.677	-1132.35059	-754.8288	946.83185	-874.21393	-950.22522	1007.17505	-1068.5824	-964.24469	1003.422	-956.67694	-733.159	674.45367	-1211.93445	-710.18524	473.29895	-1184.82288	-712.78632	278.04596	-1185.97766	-649.50665	63.69307	-1165.88147	-678.96088	35.97904	-1112.68909	-491.9469	43.65005	-1177.39661	-908.5473	655.51428	-822.57727	-966.89771	454.02393	-857.51093	-1085.45422	305.57568	-856.25409	-1182.29077	135.9774	-890.8894	-1232.32056	97.76202	-947.78918	-1057.94263	30.81394	-882.74152	-903.76349	1771.68823	-992.38263	NaN	NaN	NaN	NaN	NaN	NaN
75	0.74	-771.77985	1736.36682	-1072.92285	-784.05475	1713.53833	-928.30994	-875.66888	1632.32996	-1096.29126	-902.64551	1605.37781	-957.92865	-919.85699	1499.42981	-1020.79919	-968.34985	1225.98059	-1009.98059	-777.13184	1434.06238	-1034.14526	-722.55554	1262.99976	-1018.38184	-973.58386	1328.88818	-950.95172	-857.45929	1469.76807	-1201.1947	-914.77386	1278.3595	-1278.09131	-950.27759	1144.51233	-1289.96057	-980.09076	1018.42596	-1314.18481	-955.52307	878.83765	-1308.45093	-1005.758	897.85431	-1328.00549	-1006.92535	829.90021	-1336.26733	-834.80701	1471.97632	-836.11194	-831.40295	1284.35999	-742.5849	-782.85028	1145.08752	-716.7157	-713.85303	1044.63086	-702.84015	-625.69983	944.14874	-729.54559	-665.44019	923.80957	-693.33551	-606.65173	881.15741	-694.60187	-721.23438	975.69543	-1135.35352	-743.13757	946.83044	-877.2453	-939.05524	1008.76221	-1071.71167	-953.02844	1002.85431	-960.01794	-723.33856	676.44635	-1214.55835	-699.19147	475.36319	-1186.80322	-704.79077	280.16132	-1192.0697	-649.42212	64.59147	-1165.5238	-678.75214	36.37026	-1112.83472	-491.31088	41.68806	-1177.14172	-897.48706	656.11505	-824.28882	-955.46985	454.91574	-857.19672	-1077.19836	309.02811	-856.05487	-1177.61108	141.50369	-889.79712	-1228.03552	105.20679	-946.99573	-1057.42261	30.82924	-882.28442	-895.09766	1772.38989	-994.6524	NaN	NaN	NaN	NaN	NaN	NaN
76	0.75	-762.96985	1737.29553	-1075.2207	-775.61841	1714.36267	-930.71271	-867.0119	1633.31628	-1098.84619	-893.75226	1606.1604	-960.68689	-911.11407	1500.36633	-1023.35059	-958.45709	1226.0675	-1012.53595	-768.58075	1434.98425	-1036.62012	-713.08636	1264.43738	-1021.12231	-965.15747	1329.02466	-954.01056	-848.48871	1470.17163	-1204.04248	-904.46991	1278.02637	-1280.54321	-939.18689	1144.17883	-1292.28699	-968.73425	1017.99316	-1316.34375	-943.79346	878.617	-1310.34338	-994.01044	897.11444	-1330.13403	-995.20374	829.41418	-1338.25281	-825.99945	1472.22681	-838.27563	-824.27423	1283.88391	-745.5556	-775.85925	1144.677	-719.71283	-708.02338	1043.75537	-705.44379	-620.46448	942.58759	-732.08765	-660.40009	922.52905	-695.89374	-601.86444	879.49335	-696.90912	-709.90692	977.03967	-1138.51538	-731.40784	947.04834	-880.64374	-928.26062	1010.78809	-1074.63928	-941.48071	1002.98328	-962.82001	-712.88989	678.32684	-1216.49243	-688.37256	476.91895	-1188.41382	-697.31573	281.86896	-1195.96899	-647.7204	65.43768	-1165.38928	-678.11359	36.725	-1112.93689	-489.77008	40.12882	-1175.27478	-885.71967	656.6759	-826.0686	-942.95428	455.78455	-856.57977	-1067.91382	312.67758	-855.66699	-1172.20386	147.73639	-888.77704	-1222.745	113.47342	-946.46167	-1056.74316	30.87519	-881.94165	-886.44977	1773.24854	-997.10663	NaN	NaN	NaN	NaN	NaN	NaN
77	0.76	-754.56689	1738.31982	-1077.8595	-766.96387	1715.28699	-933.22028	-858.32471	1634.43567	-1101.50769	-885.2218	1607.20544	-963.37427	-902.45898	1501.41602	-1025.67114	-948.50592	1226.2395	-1014.84442	-760.05341	1436.20374	-1039.07947	-703.68768	1266.01978	-1023.85474	-955.37152	1328.78821	-956.64502	-839.57062	1471.12305	-1206.78125	-894.32379	1278.2699	-1283.57935	-927.89001	1143.88074	-1294.51343	-956.77716	1017.78625	-1318.50342	-931.4585	878.46735	-1312.20386	-981.58691	896.86731	-1332.28418	-982.68921	829.13208	-1340.26611	-817.36969	1473.09851	-840.33887	-817.46802	1284.33423	-748.53455	-769.01923	1144.71106	-722.75122	-702.45758	1043.3125	-708.42273	-615.4848	941.22546	-734.36206	-655.75342	921.46558	-698.57965	-597.6344	878.07312	-699.05255	-699.15631	978.89807	-1141.89026	-719.77124	947.51965	-884.42371	-917.70172	1012.71692	-1077.354	-929.61334	1003.70966	-965.0199	-701.78241	679.90979	-1218.2179	-678.2998	477.97455	-1189.73608	-690.52557	283.01114	-1197.56287	-645.66559	65.5608	-1165.27185	-677.68372	37.04434	-1113.276	-488.39041	38.25705	-1173.24475	-873.3396	657.35773	-828.11029	-929.73834	456.7428	-855.5321	-1057.61523	316.47556	-855.08423	-1165.35583	154.06258	-887.9256	-1215.94678	121.68248	-946.54761	-1055.71179	30.92809	-881.68109	-877.73792	1774.28503	-999.68951	NaN	NaN	NaN	NaN	NaN	NaN
78	0.77	-745.90167	1739.3418	-1080.53992	-758.52368	1716.37793	-935.7749	-849.64319	1635.5885	-1104.08826	-877.04437	1608.40198	-965.75812	-894.02722	1502.27881	-1027.88831	-938.77808	1226.51135	-1016.85229	-751.5708	1437.48059	-1041.44788	-694.20728	1267.69055	-1026.63403	-946.81873	1329.02979	-959.08002	-830.89392	1472.20129	-1209.23645	-883.77472	1278.47412	-1285.64526	-916.211	1143.9801	-1296.76758	-944.33948	1017.85748	-1320.7312	-918.30035	878.5542	-1314.31006	-968.44708	896.82001	-1334.53162	-969.43677	829.04517	-1342.24915	-808.58655	1474.04651	-842.64014	-809.43988	1284.78992	-751.75238	-762.19489	1145.12854	-725.87952	-696.62952	1042.94946	-711.2666	-611.00183	939.98328	-736.80341	-651.60632	920.64728	-701.20789	-594.0531	876.80914	-701.2204	-688.8385	981.25604	-1145.14941	-708.34222	948.40839	-888.65485	-907.40857	1014.40021	-1079.95618	-917.71936	1004.72797	-966.75513	-690.40955	681.00128	-1220.0387	-669.0564	478.37897	-1190.89539	-684.3197	283.8183	-1198.08887	-644.31061	65.96333	-1165.03357	-677.33374	37.41896	-1113.21021	-487.48917	36.93285	-1172.63049	-860.86725	657.94147	-830.24963	-914.68518	456.99567	-854.05811	-1046.07764	320.20709	-854.31958	-1157.73499	160.70369	-887.37311	-1208.04004	130.59375	-946.7207	-1055.0614	31.00299	-881.66168	-868.92175	1775.46692	-1002.33148	NaN	NaN	NaN	NaN	NaN	NaN
79	0.78	-736.79095	1740.17371	-1082.7207	-749.63306	1717.41223	-938.18292	-841.05585	1636.7312	-1106.57056	-868.47455	1609.80835	-968.37604	-885.80457	1502.96973	-1029.87256	-929.1972	1226.82166	-1018.86517	-743.10022	1438.87939	-1043.70923	-684.84534	1269.36902	-1029.29883	-937.10413	1329.15747	-961.23962	-822.42535	1473.57996	-1211.3501	-873.23602	1279.16064	-1288.68066	-904.21759	1144.31372	-1299.00793	-931.35535	1018.11359	-1322.99524	-904.70435	878.88702	-1315.8429	-954.59277	897.06555	-1336.89966	-955.31659	828.93756	-1344.3811	-800.0332	1475.28271	-844.89941	-801.93158	1285.58569	-754.71191	-755.61499	1145.77124	-728.99396	-690.95135	1042.96948	-714.09723	-606.84888	938.79742	-739.27252	-647.71082	919.99622	-703.83527	-590.52106	875.56427	-703.58319	-678.53033	984.38263	-1148.45532	-697.11188	949.51776	-893.16284	-897.21832	1015.69629	-1082.4635	-906.15619	1005.80646	-968.37494	-679.10083	681.46783	-1221.8584	-660.85071	478.57684	-1192.08154	-678.76068	284.28049	-1198.64221	-643.20148	66.04066	-1164.60962	-676.89221	37.59215	-1112.95715	-486.63666	36.05327	-1172.58191	-847.48755	658.10107	-832.35712	-898.77295	457.14847	-852.46686	-1033.70386	323.87875	-853.05347	-1148.56494	167.13885	-886.90643	-1198.92639	139.74957	-947.15942	-1053.78687	30.97033	-881.98694	-860.02118	1776.7511	-1005.04376	2845.80688	1033.9032	-3356.95239	NaN	NaN	NaN
80	0.79	-728.02173	1740.99365	-1085.14404	-741.0174	1718.52905	-940.58929	-832.54596	1637.85486	-1108.9895	-860.13708	1611.3689	-970.7298	-877.78552	1503.50903	-1031.83289	-919.80627	1227.29675	-1020.85126	-734.52637	1440.34875	-1045.95508	-675.4751	1271.05432	-1031.93384	-928.41577	1329.8501	-963.12158	-814.01154	1474.98181	-1213.47363	-862.51868	1279.79639	-1290.8562	-891.93756	1144.92297	-1301.2821	-917.95026	1018.52161	-1325.28516	-890.33905	879.37244	-1317.65662	-940.1557	897.09326	-1339.33325	-940.5368	828.99377	-1346.47852	-791.68054	1476.64331	-847.22223	-794.87744	1286.91418	-757.50592	-749.08533	1146.67542	-732.13702	-685.82306	1042.90027	-717.12579	-602.52771	938.01434	-741.73889	-644.02679	919.54413	-706.32532	-587.42419	874.39221	-705.92828	-668.64044	987.39313	-1151.64404	-686.31055	950.75293	-897.73633	-887.03979	1016.64435	-1084.87268	-895.1344	1006.79395	-970.05115	-668.38654	681.62836	-1223.53845	-653.65179	478.66516	-1193.28101	-674.57178	284.30307	-1198.62292	-642.34003	65.8849	-1164.13696	-676.55292	37.73095	-1112.57983	-485.91373	35.12093	-1172.31714	-834.69659	658.1778	-834.32434	-881.78754	456.87585	-851.10596	-1019.75854	327.01712	-851.85126	-1138.1615	173.56416	-886.39844	-1188.45789	149.16228	-947.47601	-1052.35242	31.10412	-882.78156	-851.09747	1778.11499	-1007.63995	NaN	NaN	NaN	NaN	NaN	NaN
81	0.8	-719.21643	1741.91846	-1087.77954	-732.3197	1719.95654	-942.85876	-824.06842	1639.02673	-1111.34424	-851.58423	1612.85535	-973.1488	-869.79022	1503.97974	-1033.75317	-910.48517	1227.86365	-1022.81836	-725.91132	1441.83228	-1048.02246	-666.18524	1272.68555	-1034.41858	-918.69781	1329.99683	-964.9649	-805.71259	1476.68262	-1215.38245	-851.89124	1280.52808	-1292.97192	-879.55487	1145.34192	-1303.54077	-904.05902	1018.91608	-1327.60291	-875.36749	879.69818	-1319.43164	-925.05646	897.388	-1341.81104	-925.02008	829.04846	-1348.73291	-783.60883	1478.11072	-849.43854	-787.14233	1288.03638	-760.4425	-742.77856	1147.6145	-735.25647	-680.65717	1043.24072	-719.68433	-598.80261	937.0639	-744.02283	-640.45319	919.2561	-708.64581	-584.62427	873.20441	-708.19342	-659.04065	990.17535	-1154.8606	-675.91571	951.95056	-902.26971	-876.93317	1017.39282	-1087.31494	-884.77722	1007.77283	-971.79199	-658.68274	681.87445	-1225.06653	-647.81989	478.48932	-1194.61243	-671.94	284.17969	-1198.20471	-641.7171	66.04891	-1163.84729	-676.43237	38.22183	-1112.4718	-485.25226	34.86973	-1172.31165	-820.51923	657.58087	-836.10822	-864.34424	456.51837	-849.8783	-1004.87219	329.8678	-850.67273	-1126.70129	179.92633	-885.83765	-1176.93127	158.50711	-947.51868	-1050.43713	31.3179	-884.24884	-842.13196	1779.5509	-1010.30127	2845.14941	1034.21533	-3360.23706	NaN	NaN	NaN
